<mxfile host="app.diagrams.net" agent="Mozilla/5.0 (Macintosh; Intel Mac OS X 10_15_7) AppleWebKit/537.36 (KHTML, like Gecko) Chrome/132.0.0.0 Safari/537.36" version="26.0.10">
  <diagram id="C5RBs43oDa-KdzZeNtuy" name="Page-1">
    <mxGraphModel dx="472" dy="689" grid="1" gridSize="10" guides="1" tooltips="1" connect="1" arrows="1" fold="1" page="1" pageScale="1" pageWidth="827" pageHeight="1169" math="0" shadow="0">
      <root>
        <mxCell id="WIyWlLk6GJQsqaUBKTNV-0" />
        <mxCell id="WIyWlLk6GJQsqaUBKTNV-1" parent="WIyWlLk6GJQsqaUBKTNV-0" />
        <mxCell id="1Jz_pqsAOi4qJiBHFXNV-11" value="" style="edgeStyle=none;curved=1;rounded=0;orthogonalLoop=1;jettySize=auto;html=1;fontSize=12;startSize=8;endSize=8;" edge="1" parent="WIyWlLk6GJQsqaUBKTNV-1" source="1Jz_pqsAOi4qJiBHFXNV-1" target="1Jz_pqsAOi4qJiBHFXNV-2">
          <mxGeometry relative="1" as="geometry" />
        </mxCell>
        <mxCell id="1Jz_pqsAOi4qJiBHFXNV-1" value="Start" style="ellipse;whiteSpace=wrap;html=1;" vertex="1" parent="WIyWlLk6GJQsqaUBKTNV-1">
          <mxGeometry x="300" y="50" width="120" height="80" as="geometry" />
        </mxCell>
        <mxCell id="1Jz_pqsAOi4qJiBHFXNV-12" value="" style="edgeStyle=none;curved=1;rounded=0;orthogonalLoop=1;jettySize=auto;html=1;fontSize=12;startSize=8;endSize=8;" edge="1" parent="WIyWlLk6GJQsqaUBKTNV-1" source="1Jz_pqsAOi4qJiBHFXNV-2" target="1Jz_pqsAOi4qJiBHFXNV-3">
          <mxGeometry relative="1" as="geometry" />
        </mxCell>
        <mxCell id="1Jz_pqsAOi4qJiBHFXNV-2" value="Enter distance (miles) and speed (mph)" style="shape=parallelogram;perimeter=parallelogramPerimeter;whiteSpace=wrap;html=1;fixedSize=1;" vertex="1" parent="WIyWlLk6GJQsqaUBKTNV-1">
          <mxGeometry x="275" y="180" width="170" height="90" as="geometry" />
        </mxCell>
        <mxCell id="1Jz_pqsAOi4qJiBHFXNV-13" value="" style="edgeStyle=none;curved=1;rounded=0;orthogonalLoop=1;jettySize=auto;html=1;fontSize=12;startSize=8;endSize=8;" edge="1" parent="WIyWlLk6GJQsqaUBKTNV-1" source="1Jz_pqsAOi4qJiBHFXNV-3" target="1Jz_pqsAOi4qJiBHFXNV-5">
          <mxGeometry relative="1" as="geometry" />
        </mxCell>
        <mxCell id="1Jz_pqsAOi4qJiBHFXNV-30" value="Yes" style="edgeLabel;html=1;align=center;verticalAlign=middle;resizable=0;points=[];fontSize=12;" vertex="1" connectable="0" parent="1Jz_pqsAOi4qJiBHFXNV-13">
          <mxGeometry x="-0.0204" relative="1" as="geometry">
            <mxPoint as="offset" />
          </mxGeometry>
        </mxCell>
        <mxCell id="1Jz_pqsAOi4qJiBHFXNV-14" value="" style="edgeStyle=none;curved=1;rounded=0;orthogonalLoop=1;jettySize=auto;html=1;fontSize=12;startSize=8;endSize=8;" edge="1" parent="WIyWlLk6GJQsqaUBKTNV-1" source="1Jz_pqsAOi4qJiBHFXNV-3" target="1Jz_pqsAOi4qJiBHFXNV-4">
          <mxGeometry relative="1" as="geometry" />
        </mxCell>
        <mxCell id="1Jz_pqsAOi4qJiBHFXNV-29" value="No" style="edgeLabel;html=1;align=center;verticalAlign=middle;resizable=0;points=[];fontSize=12;" vertex="1" connectable="0" parent="1Jz_pqsAOi4qJiBHFXNV-14">
          <mxGeometry relative="1" as="geometry">
            <mxPoint as="offset" />
          </mxGeometry>
        </mxCell>
        <mxCell id="1Jz_pqsAOi4qJiBHFXNV-3" value="Distance &amp;gt; 0 and speed &amp;gt; 0?" style="rhombus;whiteSpace=wrap;html=1;" vertex="1" parent="WIyWlLk6GJQsqaUBKTNV-1">
          <mxGeometry x="270" y="310" width="180" height="160" as="geometry" />
        </mxCell>
        <mxCell id="1Jz_pqsAOi4qJiBHFXNV-4" value="Invalid input. Try again" style="rounded=0;whiteSpace=wrap;html=1;" vertex="1" parent="WIyWlLk6GJQsqaUBKTNV-1">
          <mxGeometry x="50" y="350" width="150" height="80" as="geometry" />
        </mxCell>
        <mxCell id="1Jz_pqsAOi4qJiBHFXNV-17" style="edgeStyle=none;curved=1;rounded=0;orthogonalLoop=1;jettySize=auto;html=1;fontSize=12;startSize=8;endSize=8;" edge="1" parent="WIyWlLk6GJQsqaUBKTNV-1" source="1Jz_pqsAOi4qJiBHFXNV-5" target="1Jz_pqsAOi4qJiBHFXNV-7">
          <mxGeometry relative="1" as="geometry" />
        </mxCell>
        <mxCell id="1Jz_pqsAOi4qJiBHFXNV-5" value="Calculate Time (Distance / Speed * 60 minutes)" style="rounded=0;whiteSpace=wrap;html=1;" vertex="1" parent="WIyWlLk6GJQsqaUBKTNV-1">
          <mxGeometry x="499" y="350" width="150" height="80" as="geometry" />
        </mxCell>
        <mxCell id="1Jz_pqsAOi4qJiBHFXNV-6" value="End" style="ellipse;whiteSpace=wrap;html=1;" vertex="1" parent="WIyWlLk6GJQsqaUBKTNV-1">
          <mxGeometry x="300" y="960" width="120" height="80" as="geometry" />
        </mxCell>
        <mxCell id="1Jz_pqsAOi4qJiBHFXNV-19" value="" style="edgeStyle=none;curved=1;rounded=0;orthogonalLoop=1;jettySize=auto;html=1;fontSize=12;startSize=8;endSize=8;" edge="1" parent="WIyWlLk6GJQsqaUBKTNV-1" source="1Jz_pqsAOi4qJiBHFXNV-7" target="1Jz_pqsAOi4qJiBHFXNV-9">
          <mxGeometry relative="1" as="geometry" />
        </mxCell>
        <mxCell id="1Jz_pqsAOi4qJiBHFXNV-26" value="Yes" style="edgeLabel;html=1;align=center;verticalAlign=middle;resizable=0;points=[];fontSize=12;" vertex="1" connectable="0" parent="1Jz_pqsAOi4qJiBHFXNV-19">
          <mxGeometry x="-0.2653" relative="1" as="geometry">
            <mxPoint as="offset" />
          </mxGeometry>
        </mxCell>
        <mxCell id="1Jz_pqsAOi4qJiBHFXNV-31" value="" style="edgeStyle=none;curved=1;rounded=0;orthogonalLoop=1;jettySize=auto;html=1;fontSize=12;startSize=8;endSize=8;" edge="1" parent="WIyWlLk6GJQsqaUBKTNV-1" source="1Jz_pqsAOi4qJiBHFXNV-7" target="1Jz_pqsAOi4qJiBHFXNV-8">
          <mxGeometry relative="1" as="geometry" />
        </mxCell>
        <mxCell id="1Jz_pqsAOi4qJiBHFXNV-32" value="No" style="edgeLabel;html=1;align=center;verticalAlign=middle;resizable=0;points=[];fontSize=12;" vertex="1" connectable="0" parent="1Jz_pqsAOi4qJiBHFXNV-31">
          <mxGeometry x="-0.1556" relative="1" as="geometry">
            <mxPoint as="offset" />
          </mxGeometry>
        </mxCell>
        <mxCell id="1Jz_pqsAOi4qJiBHFXNV-7" value="Is this the fastest route?" style="rhombus;whiteSpace=wrap;html=1;" vertex="1" parent="WIyWlLk6GJQsqaUBKTNV-1">
          <mxGeometry x="270" y="505" width="180" height="160" as="geometry" />
        </mxCell>
        <mxCell id="1Jz_pqsAOi4qJiBHFXNV-22" style="edgeStyle=none;curved=1;rounded=0;orthogonalLoop=1;jettySize=auto;html=1;entryX=0.5;entryY=0;entryDx=0;entryDy=0;fontSize=12;startSize=8;endSize=8;" edge="1" parent="WIyWlLk6GJQsqaUBKTNV-1" source="1Jz_pqsAOi4qJiBHFXNV-8" target="1Jz_pqsAOi4qJiBHFXNV-10">
          <mxGeometry relative="1" as="geometry" />
        </mxCell>
        <mxCell id="1Jz_pqsAOi4qJiBHFXNV-27" value="No" style="edgeLabel;html=1;align=center;verticalAlign=middle;resizable=0;points=[];fontSize=12;" vertex="1" connectable="0" parent="1Jz_pqsAOi4qJiBHFXNV-22">
          <mxGeometry x="-0.16" y="1" relative="1" as="geometry">
            <mxPoint as="offset" />
          </mxGeometry>
        </mxCell>
        <mxCell id="1Jz_pqsAOi4qJiBHFXNV-24" style="edgeStyle=none;curved=1;rounded=0;orthogonalLoop=1;jettySize=auto;html=1;fontSize=12;startSize=8;endSize=8;entryX=0.953;entryY=0.389;entryDx=0;entryDy=0;entryPerimeter=0;" edge="1" parent="WIyWlLk6GJQsqaUBKTNV-1" source="1Jz_pqsAOi4qJiBHFXNV-8" target="1Jz_pqsAOi4qJiBHFXNV-2">
          <mxGeometry relative="1" as="geometry">
            <mxPoint x="690" y="220" as="targetPoint" />
            <Array as="points">
              <mxPoint x="550" y="810" />
              <mxPoint x="660" y="710" />
              <mxPoint x="700" y="580" />
              <mxPoint x="700" y="310" />
            </Array>
          </mxGeometry>
        </mxCell>
        <mxCell id="1Jz_pqsAOi4qJiBHFXNV-25" value="Yes" style="edgeLabel;html=1;align=center;verticalAlign=middle;resizable=0;points=[];fontSize=12;" vertex="1" connectable="0" parent="1Jz_pqsAOi4qJiBHFXNV-24">
          <mxGeometry x="-0.0087" relative="1" as="geometry">
            <mxPoint as="offset" />
          </mxGeometry>
        </mxCell>
        <mxCell id="1Jz_pqsAOi4qJiBHFXNV-8" value="More routes (y/n)?" style="rounded=0;whiteSpace=wrap;html=1;" vertex="1" parent="WIyWlLk6GJQsqaUBKTNV-1">
          <mxGeometry x="285" y="710" width="150" height="80" as="geometry" />
        </mxCell>
        <mxCell id="1Jz_pqsAOi4qJiBHFXNV-21" style="edgeStyle=none;curved=1;rounded=0;orthogonalLoop=1;jettySize=auto;html=1;entryX=1;entryY=0.5;entryDx=0;entryDy=0;fontSize=12;startSize=8;endSize=8;" edge="1" parent="WIyWlLk6GJQsqaUBKTNV-1" source="1Jz_pqsAOi4qJiBHFXNV-9" target="1Jz_pqsAOi4qJiBHFXNV-8">
          <mxGeometry relative="1" as="geometry" />
        </mxCell>
        <mxCell id="1Jz_pqsAOi4qJiBHFXNV-9" value="Update fastest route details" style="rounded=0;whiteSpace=wrap;html=1;" vertex="1" parent="WIyWlLk6GJQsqaUBKTNV-1">
          <mxGeometry x="499" y="545" width="150" height="80" as="geometry" />
        </mxCell>
        <mxCell id="1Jz_pqsAOi4qJiBHFXNV-28" value="" style="edgeStyle=none;curved=1;rounded=0;orthogonalLoop=1;jettySize=auto;html=1;fontSize=12;startSize=8;endSize=8;" edge="1" parent="WIyWlLk6GJQsqaUBKTNV-1" source="1Jz_pqsAOi4qJiBHFXNV-10" target="1Jz_pqsAOi4qJiBHFXNV-6">
          <mxGeometry relative="1" as="geometry" />
        </mxCell>
        <mxCell id="1Jz_pqsAOi4qJiBHFXNV-10" value="Display fastest route details" style="rounded=0;whiteSpace=wrap;html=1;" vertex="1" parent="WIyWlLk6GJQsqaUBKTNV-1">
          <mxGeometry x="285" y="840" width="150" height="80" as="geometry" />
        </mxCell>
        <mxCell id="1Jz_pqsAOi4qJiBHFXNV-18" style="edgeStyle=none;curved=1;rounded=0;orthogonalLoop=1;jettySize=auto;html=1;fontSize=12;startSize=8;endSize=8;entryX=0;entryY=1;entryDx=0;entryDy=0;" edge="1" parent="WIyWlLk6GJQsqaUBKTNV-1" source="1Jz_pqsAOi4qJiBHFXNV-4" target="1Jz_pqsAOi4qJiBHFXNV-2">
          <mxGeometry relative="1" as="geometry">
            <mxPoint x="270" y="280" as="targetPoint" />
          </mxGeometry>
        </mxCell>
      </root>
    </mxGraphModel>
  </diagram>
</mxfile>
